<svg width="256" height="256" viewBox="0 0 256 256" fill="none" xmlns="http://www.w3.org/2000/svg">
<rect width="256" height="256" rx="10" fill="#29180F"/>
<path d="M57.8826 164C37.2165 164 25.6108 155.768 25.6108 139.716V139.099H40.8814V140.951C40.8814 147.33 44.0373 149.903 57.8826 149.903C70.0991 149.903 72.9496 148.051 72.9496 143.42C72.9496 139.201 70.6081 137.658 63.5836 136.423L44.4445 133.645C32.2281 131.69 25 125.516 25 114.3C25 103.907 33.3479 93 56.2538 93C77.2254 93 86.9985 102.775 86.9985 117.284V117.901H71.6261V116.461C71.6261 109.875 68.2666 107.097 54.7267 107.097C43.7319 107.097 40.3724 109.258 40.3724 113.683C40.3724 117.696 42.6121 119.136 48.3131 120.165L67.4522 123.252C82.7228 125.722 88.2202 133.233 88.2202 142.7C88.2202 153.916 79.5668 164 57.8826 164Z" fill="white"/>
<path d="M129.561 164C106.961 164 92.9119 150.006 92.9119 128.5C92.9119 106.994 106.961 93 129.561 93C152.671 93 166.618 106.994 166.618 128.5C166.618 150.006 152.671 164 129.561 164ZM129.561 149.183C144.526 149.183 150.329 143.832 150.329 128.5C150.329 113.168 144.526 107.817 129.561 107.817C114.596 107.817 109.099 113.168 109.099 128.5C109.099 143.832 114.596 149.183 129.561 149.183Z" fill="white"/>
<path d="M188.548 162.971H173.277V94.029H231V107.92H188.548V123.458H229.473V137.246H188.548V162.971Z" fill="white"/>
</svg>
